<?xml version="1.0" encoding="UTF-8" standalone="no"?>
<!DOCTYPE svg PUBLIC "-//W3C//DTD SVG 1.1//EN" "http://www.w3.org/Graphics/SVG/1.1/DTD/svg11.dtd">
<svg width="100%" height="100%" viewBox="0 0 302 317" version="1.1" xmlns="http://www.w3.org/2000/svg" xmlns:xlink="http://www.w3.org/1999/xlink" xml:space="preserve" xmlns:serif="http://www.serif.com/" style="fill-rule:evenodd;clip-rule:evenodd;stroke-linejoin:round;stroke-miterlimit:2;">
    <g transform="matrix(1,0,0,1,-5095.761463,-898.268542)">
        <g transform="matrix(4.166667,0,0,4.166667,3946.359375,0)">
            <g transform="matrix(1,0,0,1,295.8875,253.5712)">
                <path d="M0,0L-19.06,-9.626C-20.853,-10.532 -19.969,-13.252 -17.986,-12.931L3.092,-9.515L-6.67,-28.506C-7.588,-30.293 -5.274,-31.974 -3.859,-30.549L11.186,-15.396L14.451,-36.498C14.758,-38.483 17.619,-38.483 17.926,-36.498L21.191,-15.396L36.236,-30.549C37.652,-31.974 39.966,-30.293 39.047,-28.506L29.285,-9.515L50.363,-12.931C52.347,-13.252 53.23,-10.532 51.437,-9.626L32.377,0L51.437,9.626C53.23,10.532 52.347,13.252 50.363,12.931L29.285,9.515L39.047,28.506C39.966,30.293 37.652,31.974 36.236,30.549L21.191,15.396L17.926,36.498C17.619,38.483 14.758,38.483 14.451,36.498L11.186,15.396L-3.859,30.549C-5.274,31.974 -7.588,30.293 -6.67,28.506L3.092,9.515L-17.986,12.931C-19.969,13.252 -20.853,10.532 -19.06,9.626L0,0Z" style="fill:rgb(206,44,45);fill-rule:nonzero;"/>
            </g>
        </g>
    </g>
</svg>
