<?xml version="1.0" encoding="UTF-8" standalone="no"?>
<!DOCTYPE svg PUBLIC "-//W3C//DTD SVG 1.1//EN" "http://www.w3.org/Graphics/SVG/1.1/DTD/svg11.dtd">
<svg width="100%" height="100%" viewBox="0 0 299 312" version="1.1" xmlns="http://www.w3.org/2000/svg" xmlns:xlink="http://www.w3.org/1999/xlink" xml:space="preserve" xmlns:serif="http://www.serif.com/" style="fill-rule:evenodd;clip-rule:evenodd;stroke-linejoin:round;stroke-miterlimit:2;">
    <g transform="matrix(1,0,0,1,-5427.251937,-528.04625)">
        <g transform="matrix(4.166667,0,0,4.166667,3946.359375,0)">
            <g transform="matrix(1,0,0,1,391.1834,126.7311)">
                <path d="M0,74.647C-3.836,74.647 -6.984,70.593 -10.445,69.469C-14.032,68.304 -18.954,69.693 -21.94,67.52C-24.956,65.326 -25.145,60.2 -27.34,57.185C-29.513,54.199 -34.341,52.447 -35.506,48.86C-36.63,45.399 -33.79,41.159 -33.79,37.324C-33.79,33.488 -36.63,29.249 -35.506,25.788C-34.341,22.2 -29.513,20.448 -27.34,17.463C-25.145,14.447 -24.956,9.322 -21.94,7.127C-18.954,4.954 -14.032,6.343 -10.445,5.178C-6.984,4.055 -3.836,0 0,0C3.836,0 6.984,4.055 10.445,5.178C14.032,6.343 18.954,4.954 21.94,7.127C24.956,9.322 25.145,14.447 27.34,17.463C29.513,20.448 34.341,22.2 35.506,25.787C36.63,29.249 33.79,33.488 33.79,37.324C33.79,41.159 36.63,45.399 35.506,48.86C34.341,52.447 29.513,54.199 27.34,57.185C25.145,60.2 24.956,65.326 21.94,67.52C18.954,69.693 14.032,68.304 10.445,69.469C6.984,70.593 3.836,74.647 0,74.647" style="fill:rgb(247,181,23);fill-rule:nonzero;"/>
            </g>
        </g>
    </g>
</svg>
