<?xml version="1.0" encoding="UTF-8" standalone="no"?>
<!DOCTYPE svg PUBLIC "-//W3C//DTD SVG 1.1//EN" "http://www.w3.org/Graphics/SVG/1.1/DTD/svg11.dtd">
<svg width="100%" height="100%" viewBox="0 0 587 587" version="1.1" xmlns="http://www.w3.org/2000/svg" xmlns:xlink="http://www.w3.org/1999/xlink" xml:space="preserve" xmlns:serif="http://www.serif.com/" style="fill-rule:evenodd;clip-rule:evenodd;stroke-linecap:round;stroke-miterlimit:10;">
    <g transform="matrix(1,0,0,1,-5968.603958,-3948.710833)">
        <g transform="matrix(4.166667,0,0,4.166667,3946.359375,2790.35625)">
            <g transform="matrix(1,0,0,1,553.0817,334.2141)">
                <path d="M0,28.366L-10.089,83.426C-6.177,84.14 -2.167,84.529 1.831,84.575L2.476,28.603C1.64,28.593 0.807,28.514 0,28.366M9.443,30.994L6.322,30.994L17.53,82.997C21.448,82.155 25.32,80.963 29.035,79.461L9.443,30.994ZM-5.216,26.278L-35.854,73.123C-32.502,75.316 -28.939,77.232 -25.264,78.819L-3.062,27.437C-3.806,27.115 -4.534,26.726 -5.216,26.278M19.278,30.994L14.359,30.994L42.939,71.921C46.209,69.636 49.307,67.058 52.146,64.252L19.278,30.994ZM-9.308,22.265L-55.573,53.772C-53.328,57.068 -50.782,60.196 -48.01,63.067L-7.741,24.191C-8.317,23.592 -8.844,22.946 -9.308,22.265M38.165,28.995C38.152,29.614 38.132,30.233 38.106,30.852C37.961,31.082 37.526,30.961 37.312,30.994L29.14,30.994L62.063,51.974C64.213,48.596 66.09,45.01 67.631,41.319L38.165,28.995ZM-11.498,17.082L-66.353,28.231C-65.553,32.159 -64.411,36.044 -62.952,39.778L-10.813,19.413C-11.106,18.659 -11.337,17.876 -11.498,17.082M38.178,14.165C38.158,16.203 38.175,18.248 38.191,20.296L72.056,26.091C72.728,22.173 73.067,18.159 73.067,14.165L38.178,14.165ZM-66.455,0.609C-67.219,4.517 -67.651,8.528 -67.743,12.525L-11.784,13.813C-11.765,12.979 -11.676,12.15 -11.518,11.35L-66.455,0.609ZM68.843,-9.888L37.111,1.646C37.852,3.628 38.109,5.67 38.185,7.771L71.971,1.738C71.263,-2.209 70.212,-6.121 68.843,-9.888M-55.856,-25.024C-58.085,-21.699 -60.041,-18.162 -61.671,-14.511L-10.553,8.297C-10.224,7.553 -9.822,6.832 -9.364,6.151L-55.856,-25.024ZM54.45,-33.536L26.769,-8.037C28.61,-7.461 30.348,-6.562 31.869,-5.357C32.021,-5.239 32.172,-5.117 32.321,-4.992L61.793,-24.063C59.626,-27.411 57.154,-30.599 54.45,-33.536M-36.272,-44.52C-39.594,-42.314 -42.752,-39.805 -45.656,-37.069L-7.25,3.655C-6.648,3.085 -5.993,2.565 -5.304,2.11L-36.272,-44.52ZM32.087,-49.814L12.436,-7.145C12.677,-7.264 12.924,-7.379 13.171,-7.484C13.543,-7.642 13.925,-7.791 14.31,-7.922C14.876,-8.116 15.452,-8.281 16.035,-8.409C16.266,-8.462 16.496,-8.508 16.727,-8.548L16.727,-8.551C16.881,-8.577 17.036,-8.604 17.194,-8.624L17.194,-8.627C17.583,-8.689 17.978,-8.729 18.37,-8.755L42.531,-43.875C39.232,-46.143 35.719,-48.142 32.087,-49.814M-10.596,-55C-14.534,-54.25 -18.432,-53.153 -22.182,-51.737L-2.44,0.639C-1.682,0.355 -0.896,0.132 -0.102,-0.02L-10.596,-55ZM5.12,-56.209L3.177,-0.267C3.839,-0.244 4.498,-0.175 5.14,-0.066C5.295,-0.359 5.463,-0.649 5.634,-0.932C5.729,-1.09 5.828,-1.245 5.93,-1.399L17.026,-54.777C13.124,-55.586 9.117,-56.07 5.12,-56.209" style="fill:rgb(247,181,23);fill-rule:nonzero;"/>
            </g>
        </g>
        <g transform="matrix(4.166667,0,0,4.166667,3946.359375,2790.35625)">
            <g transform="matrix(0.760958,0.648802,0.648802,-0.760958,557.677788,345.484481)">
                <path d="M-0.16,-0.252L0.545,-0.252C0.5,-0.398 0.449,-0.543 0.391,-0.684L0.082,-0.553L-0.16,-0.252Z" style="fill:white;fill-rule:nonzero;"/>
            </g>
        </g>
        <g transform="matrix(4.166667,0,0,4.166667,3946.359375,2790.35625)">
            <g transform="matrix(0.807878,0.589349,0.589349,-0.807878,557.980808,343.807681)">
                <path d="M-0.273,-0.552L1.493,-0.552C1.494,-0.702 1.482,-0.854 1.465,-1.004L-0.114,-0.783L-0.273,-0.552Z" style="fill:white;fill-rule:nonzero;"/>
            </g>
        </g>
        <g transform="matrix(4.166667,0,0,4.166667,3946.359375,2790.35625)">
            <g transform="matrix(-0.786903,-0.617076,-0.617076,0.786903,557.467644,341.247825)">
                <path d="M-0.264,-1.444C-0.418,-1.424 -0.569,-1.391 -0.718,-1.349L-0.264,0.275L-0.059,-0.004L-0.264,-1.444Z" style="fill:white;fill-rule:nonzero;"/>
            </g>
        </g>
        <g transform="matrix(4.166667,0,0,4.166667,3946.359375,2790.35625)">
            <g transform="matrix(1,0,0,1,556.8279,325.3484)">
                <path d="M0,39.86L30.739,39.86C31.483,39.861 32.3,39.86 33.045,39.86L33.567,39.86C33.781,39.827 34.213,39.949 34.358,39.719C34.597,33.947 34.361,28.048 34.442,22.238C34.443,16.971 34.942,12.046 31.773,7.459C31.772,7.459 31.772,7.457 31.772,7.457C30.781,5.955 29.546,4.611 28.125,3.507C25.073,1.094 21.161,-0.089 17.286,0.067C16.006,0.064 14.716,0.039 13.448,0.24L13.448,0.242C13.29,0.263 13.136,0.289 12.979,0.316L12.979,0.317C12.748,0.356 12.519,0.405 12.291,0.455L12.291,0.456C11.706,0.584 11.129,0.748 10.563,0.942L10.563,0.943C10.178,1.074 9.798,1.222 9.424,1.381L9.424,1.383C8.72,1.683 8.04,2.038 7.384,2.434L7.384,2.435C5.775,3.414 4.338,4.673 3.152,6.138L3.152,6.139C3.029,6.289 2.908,6.443 2.792,6.597L2.792,6.599C2.469,7.029 2.165,7.472 1.886,7.932L1.886,7.933C1.693,8.252 1.506,8.579 1.336,8.911C1.2,9.173 1.068,9.439 0.949,9.709C0.918,9.773 0.891,9.84 0.861,9.904" style="fill:none;fill-rule:nonzero;stroke:rgb(27,49,35);stroke-width:1.65px;"/>
            </g>
        </g>
        <g transform="matrix(4.166667,0,0,4.166667,3946.359375,2790.35625)">
            <g transform="matrix(1,0,0,1,562.8567,349.5961)">
                <path d="M0,0C0,2.308 -0.366,4.53 -1.044,6.612C-2.019,9.605 -3.636,12.307 -5.733,14.556C-8.077,17.068 -11.02,19.014 -14.334,20.166C-16.53,20.929 -18.889,21.344 -21.344,21.344C-23.701,21.344 -25.969,20.962 -28.089,20.256C-36.572,17.433 -42.688,9.43 -42.688,0C-42.688,-11.789 -33.132,-21.344 -21.344,-21.344C-14.741,-21.344 -8.838,-18.345 -4.923,-13.635C-3.196,-11.559 -1.857,-9.148 -1.013,-6.516C-1.012,-6.513 -1.011,-6.511 -1.011,-6.508C-0.354,-4.456 0,-2.27 0,0" style="fill:rgb(221,204,201);fill-rule:nonzero;"/>
            </g>
        </g>
        <g transform="matrix(4.166667,0,0,4.166667,3946.359375,2790.35625)">
            <g transform="matrix(1,0,0,1,562.817,348.9796)">
                <path d="M0,3.126C-0.074,4.393 -0.248,5.628 -0.521,6.826C-0.994,8.896 -1.762,10.855 -2.82,12.683C-3.374,13.64 -4.549,14.938 -5.961,16.229C-9.185,19.177 -13.646,22.093 -14.769,20.849C-14.834,20.776 -14.73,20.662 -14.492,20.493C-13.317,19.659 -8.892,17.518 -5.886,12.64C-5.035,11.258 -4.297,9.658 -3.778,7.804C-3.372,6.347 -3.1,4.734 -3.017,2.95C-2.871,-0.172 -3.647,-3.47 -5.328,-6.776C-7.271,-10.603 -10.428,-14.438 -14.768,-18.015C-14.939,-18.156 -14.885,-18.425 -14.676,-18.495C-13.25,-18.967 -8.734,-17.006 -5.153,-12.843C-3.908,-11.396 -2.775,-9.682 -1.925,-7.713C-1.682,-7.151 -1.462,-6.581 -1.264,-6.003C-1.263,-6 -1.262,-5.997 -1.262,-5.995C-0.254,-3.061 0.18,0.057 0,3.126" style="fill:rgb(129,118,116);fill-rule:nonzero;"/>
            </g>
        </g>
        <g transform="matrix(4.166667,0,0,4.166667,3946.359375,2790.35625)">
            <g transform="matrix(1,0,0,1,541.2115,322.8199)">
                <path d="M0,48.491C0,48.492 0.001,48.494 0.001,48.495C-24.187,47.391 -28.903,14.174 -5.867,6.411C15.38,-0.355 31.782,26.617 15.616,42.389L15.615,42.389C14.399,43.577 13.037,44.618 11.577,45.49L11.575,45.49C11.476,45.547 11.378,45.607 11.279,45.663M13.341,14.823C19.252,21.795 20.354,33.087 14.755,40.555M11.766,45.376C9.23,46.958 4.612,48.846 -0.062,48.492" style="fill:none;fill-rule:nonzero;stroke:rgb(27,49,35);stroke-width:1.54px;"/>
            </g>
        </g>
    </g>
</svg>
